<svg width="638" height="583" viewBox="0 0 638 583" fill="none" xmlns="http://www.w3.org/2000/svg">
<path d="M52 202V472L273 540L95 433V227L52 202Z" fill="#0105FF"/>
<path d="M116 164V421L277 518V466.5L159 396V344L251 398V347L159 292.5V240L277 310V259L116 164Z" fill="#0105FF"/>
<path d="M319.5 40L244 171L298 155V373L341 347V154L394 170L319.5 40Z" fill="#0105FF"/>
<path d="M319.5 544L298 530V397L362 358V260L405 234V333L479 287V190L523 164V422L479 448V337L405 382V492L362 518V409L341 422V530L319.5 544Z" fill="#0105FF"/>
<path d="M542 227.5L586 202V472L365 540L543 433C543.4 433 541.833 296.167 542 227.5Z" fill="#0105FF"/>
</svg>
