<svg width="207" height="165" viewBox="0 0 207 165" fill="none" xmlns="http://www.w3.org/2000/svg">
<path d="M138.702 19.8926C136.832 25.1631 135.302 31.6238 134.112 39.2744C133.092 46.9252 132.582 55.5113 132.582 65.0322V69.1133C132.638 69.0969 132.694 69.0783 132.75 69.0605V88.8965C132.694 88.9332 132.638 88.969 132.582 89.0059V118.334C132.582 125.645 132.326 131.51 131.816 135.931C131.476 140.181 131.307 143.497 131.306 145.877C131.306 148.767 134.962 151.913 142.272 155.313L116.245 162.709C112.517 157.261 106.097 142.925 104.783 144.347C104.783 142.477 104.954 140.522 105.294 138.481C105.634 136.441 105.973 133.466 106.313 129.556C106.653 125.645 106.824 120.034 106.824 112.724V63.7578C106.824 55.597 107.164 47.6059 107.844 39.7852C108.524 31.9646 109.799 25.7584 111.669 21.168H102.488L89.992 4.08008L91.7772 0H124.421L138.702 19.8926ZM202.97 19.8926C201.099 25.1631 199.57 31.6238 198.38 39.2744C197.36 46.9252 196.849 55.5113 196.849 65.0322V118.334C196.849 125.645 196.594 131.51 196.084 135.931C195.744 140.181 195.574 143.497 195.574 145.877C195.574 148.767 199.229 151.913 206.54 155.313L183.745 162.709C175.557 156.107 172.422 145.997 169.051 144.347C169.051 142.477 169.221 140.522 169.561 138.481C169.901 136.441 170.241 133.466 170.581 129.556C170.921 125.645 171.091 120.034 171.091 112.724L172.111 89.0059C172.106 89.0031 171.986 88.9359 171.767 88.8135C172.225 72.31 171.75 76.3655 171.75 66.5C171.75 65.7297 171.518 65.0545 171.091 64.4658V63.7578C171.091 55.597 171.431 47.6059 172.111 39.7852C172.791 31.9646 174.066 25.7584 175.936 21.168H166.756L154.26 4.08008L156.045 0H188.688L202.97 19.8926Z" fill="#FFF8F8"/>
<path d="M72.1735 164.899C51.9411 164.899 37.0643 163.539 27.5432 160.819C18.0221 157.929 13.2616 155.718 13.2616 154.188C13.2616 150.788 13.8566 144.412 15.0468 135.061C16.4069 125.71 17.087 113.978 17.087 99.8668V67.478C17.257 57.6168 17.7671 49.5409 18.6172 43.2501C19.4673 36.7894 20.4024 31.7738 21.4225 28.2034H12.7515L0 11.1164L2.04024 7.03589H84.6699L98.9516 25.398L86.4551 36.3643H81.0995C79.2293 33.304 77.019 31.1787 74.4687 29.9886C72.0884 28.7984 68.603 28.2034 64.0125 28.2034H47.9456C46.7555 32.7939 45.5653 38.5746 44.3752 45.5454C43.3551 52.5162 42.845 60.7622 42.845 70.2833V73.8537L199.245 67.478L203.745 81L196.245 85L42.845 93V106.243C42.845 113.553 42.675 119.844 42.335 125.115C42.1649 130.215 41.7399 135.401 41.0598 140.672C43.7801 141.182 47.0955 141.607 51.006 141.947C54.9164 142.117 59.2519 142.202 64.0125 142.202C68.603 142.202 73.0236 142.032 77.2741 141.692C81.6946 141.352 85.775 140.927 89.5155 140.417L101.247 160.564L98.1865 164.899H72.1735Z" fill="#FFF8F8"/>
</svg>
